<svg xmlns="http://www.w3.org/2000/svg" viewBox="0 0 72 72" role="img" aria-labelledby="title">
  <title id="title">BioSpine living spine mark</title>
  <rect width="72" height="72" rx="15" fill="#F7F4EE"/>
  <path d="M29 7C16 11 8 22 8 35c0 13 8 24 21 30" fill="none" stroke="#55A95C" stroke-width="4" stroke-linecap="round"/>
  <path d="M43 7c13 4 21 15 21 28 0 13-8 24-21 30" fill="none" stroke="#55A95C" stroke-width="4" stroke-linecap="round"/>
  <g fill="#1F6528">
    <rect x="37" y="10" width="12" height="6" rx="3" transform="rotate(-18 43 13)"/>
    <rect x="31" y="16" width="12" height="6" rx="3" transform="rotate(-28 37 19)"/>
    <rect x="27" y="23" width="12" height="6" rx="3" transform="rotate(-18 33 26)"/>
    <rect x="28" y="30" width="12" height="6" rx="3" transform="rotate(10 34 33)"/>
    <rect x="33" y="36" width="12" height="6" rx="3" transform="rotate(24 39 39)"/>
    <rect x="36" y="43" width="12" height="6" rx="3" transform="rotate(13 42 46)"/>
    <rect x="33" y="50" width="12" height="6" rx="3" transform="rotate(-15 39 53)"/>
    <rect x="26" y="56" width="12" height="6" rx="3" transform="rotate(-25 32 59)"/>
  </g>
  <circle cx="36" cy="35" r="2.25" fill="#55A95C"/>
</svg>
